<svg width="40" height="40" viewBox="0 0 40 40" fill="none" xmlns="http://www.w3.org/2000/svg">
<path d="M28 24H12" stroke="#FEB801" stroke-width="2" stroke-linecap="round"/>
<path d="M20 9L20.2865 10.0038L21.299 9.75L20.5729 10.5L21.299 11.25L20.2865 10.9962L20 12L19.7135 10.9962L18.701 11.25L19.4271 10.5L18.701 9.75L19.7135 10.0038L20 9Z" stroke="#FEB801" stroke-width="2" stroke-linecap="round" stroke-linejoin="round"/>
<path d="M13.5 9L13.7865 10.0038L14.799 9.75L14.0729 10.5L14.799 11.25L13.7865 10.9962L13.5 12L13.2135 10.9962L12.201 11.25L12.9271 10.5L12.201 9.75L13.2135 10.0038L13.5 9Z" stroke="#FEB801" stroke-width="2" stroke-linecap="round" stroke-linejoin="round"/>
<path d="M26.5 9L26.7865 10.0038L27.799 9.75L27.0729 10.5L27.799 11.25L26.7865 10.9962L26.5 12L26.2135 10.9962L25.201 11.25L25.9271 10.5L25.201 9.75L26.2135 10.0038L26.5 9Z" stroke="#FEB801" stroke-width="2" stroke-linecap="round" stroke-linejoin="round"/>
</svg>
